<?xml version="1.0" standalone="no"?>
<!DOCTYPE svg PUBLIC "-//W3C//DTD SVG 20010904//EN"
 "http://www.w3.org/TR/2001/REC-SVG-20010904/DTD/svg10.dtd">
<svg version="1.0" xmlns="http://www.w3.org/2000/svg"
 width="265.000000pt" height="265.000000pt" viewBox="0 0 265.000000 265.000000"
 preserveAspectRatio="xMidYMid meet">
<metadata>
Created by potrace 1.11, written by Peter Selinger 2001-2013
</metadata>
<g transform="translate(0.000000,265.000000) scale(0.100000,-0.100000)"
fill="#000000" stroke="none">
<path d="M1811 2333 c-78 -39 -192 -167 -525 -593 l-89 -114 -16 25 c-37 57
-98 111 -157 140 -57 28 -71 31 -129 27 -36 -3 -78 -14 -96 -24 -61 -36 -85
-123 -58 -205 20 -59 94 -153 158 -199 34 -25 61 -48 61 -52 0 -13 -286 -301
-339 -342 -28 -21 -51 -44 -51 -52 0 -22 41 -44 61 -33 26 14 241 229 325 325
l70 80 51 -17 c52 -17 132 -35 188 -42 28 -3 31 -8 42 -62 6 -32 14 -78 17
-103 6 -53 28 -81 49 -64 7 6 35 58 61 116 l48 104 62 7 c151 18 226 43 226
76 0 25 -15 32 -30 14 -7 -8 -36 -22 -64 -30 -60 -17 -180 -30 -173 -18 9 16
142 293 219 458 178 378 232 556 179 585 -27 14 -50 12 -90 -7z m37 -64 c5
-47 -69 -236 -238 -604 -5 -11 -45 -96 -90 -189 -44 -93 -80 -173 -80 -177 0
-9 -8 -11 -35 -11 -75 0 -73 -2 -95 70 -11 37 -34 102 -51 144 l-31 78 53 72
c204 277 380 499 464 584 69 70 98 79 103 33z m-831 -508 c46 -23 128 -104
144 -142 11 -27 7 -33 -57 -111 -38 -46 -74 -89 -81 -96 -17 -17 -81 26 -150
102 -68 74 -88 118 -84 186 5 78 130 112 228 61z m212 -278 c44 -119 60 -183
46 -183 -23 0 -169 49 -187 62 -15 12 -11 21 45 95 34 45 65 82 68 82 4 1 16
-25 28 -56z m181 -238 c0 -2 -10 -25 -22 -50 -22 -45 -34 -56 -36 -32 -1 6 -4
29 -7 50 l-7 37 36 0 c20 0 36 -2 36 -5z"/>
<path d="M1747 1072 c-21 -23 -22 -46 -2 -62 34 -28 98 22 82 64 -9 22 -60 20
-80 -2z"/>
</g>
</svg>
